<svg width="1200" height="630" xmlns="http://www.w3.org/2000/svg">
  <defs>
    <linearGradient id="bgGradient" x1="0%" y1="0%" x2="100%" y2="100%">
      <stop offset="0%" style="stop-color:#ffffff;stop-opacity:1" />
      <stop offset="100%" style="stop-color:#f8f8f8;stop-opacity:1" />
    </linearGradient>
  </defs>
  
  <!-- Background -->
  <rect width="1200" height="630" fill="url(#bgGradient)"/>
  
  <!-- Purple accent line at top -->
  <rect x="0" y="0" width="1200" height="8" fill="#9B44C7"/>
  
  <!-- Main content area - centered logo -->
  <g transform="translate(600, 280)">
    <!-- rideTO Logo Text (from thumb.svg, scaled and centered) -->
    <g transform="translate(-300, -120) scale(0.7)">
      <!-- "ride" in purple -->
      <path d="M265.058 439.93C258.757 439.93 254.68 437.706 257.645 428.81C259.869 421.768 260.24 411.76 250.973 411.76C244.672 411.76 240.224 416.579 240.224 425.845V517.027C240.224 524.44 236.518 528.147 228.734 528.147H165.351C157.938 528.147 154.232 524.44 154.232 517.027V352.455C154.232 345.042 157.938 341.335 165.351 341.335H228.734C236.147 341.335 239.854 344.671 240.224 351.713C251.344 342.076 265.8 337.628 282.109 337.628C317.321 337.628 337.337 358.385 337.337 395.08C337.337 406.571 335.854 418.803 332.889 430.293C331.406 436.594 327.329 439.93 320.657 439.93H265.058ZM349.583 296.485C349.583 277.582 359.22 263.126 397.398 263.126C435.576 263.126 445.213 277.582 445.213 296.485C445.213 315.389 435.576 329.845 397.398 329.845C359.22 329.845 349.583 315.389 349.583 296.485ZM354.402 517.027V352.455C354.402 345.042 358.108 341.335 365.521 341.335H429.274C436.688 341.335 440.394 345.042 440.394 352.455V517.027C440.394 524.44 436.688 528.147 429.274 528.147H365.521C358.108 528.147 354.402 524.44 354.402 517.027ZM669.397 292.408V517.027C669.397 524.44 665.691 528.147 658.277 528.147H594.524C587.111 528.147 583.405 524.44 583.405 517.398C570.802 526.664 555.605 532.224 537.814 532.224C487.033 532.224 459.975 498.494 459.975 434.741C459.975 370.988 487.033 337.628 537.814 337.628C555.976 337.628 571.173 342.818 583.405 352.084V292.408C583.405 284.995 587.111 281.288 594.524 281.288H658.277C665.691 281.288 669.397 284.995 669.397 292.408ZM583.405 434.741C583.405 421.768 575.991 412.501 564.13 412.501C553.011 412.501 545.968 421.768 545.968 434.741C545.968 447.714 553.011 457.351 564.13 457.351C575.991 457.351 583.405 447.714 583.405 434.741ZM772.492 446.973C777.311 461.799 790.655 464.764 810.299 464.764C826.979 464.764 843.659 462.17 860.709 460.687C867.01 459.946 868.493 465.505 868.122 471.065L865.527 511.096C865.157 519.622 859.597 521.104 852.554 523.328C835.504 528.517 818.083 532.224 799.921 532.224C738.021 532.224 687.982 501.83 687.982 434.741C687.982 372.47 730.979 337.628 791.396 337.628C830.686 337.628 872.941 353.937 872.941 401.011C872.941 438.447 844.4 446.973 813.635 446.973H772.492ZM771.38 421.027H795.844C801.404 421.027 806.222 416.949 806.222 410.648C806.222 403.976 799.18 401.011 793.249 401.011C780.276 401.011 773.975 410.277 771.38 421.027Z" fill="#9B44C7"/>
      <!-- "TO" in gray -->
      <path d="M164.276 573.571H321.252C326.889 573.571 329.707 576.389 329.707 582.308V624.863C329.707 630.5 326.889 633.318 321.252 633.318H275.879V752.812C275.879 758.448 273.06 761.267 267.424 761.267H218.104C212.186 761.267 209.368 758.448 209.368 752.812V633.318H164.276C158.639 633.318 155.821 630.218 155.821 624.581V582.308C155.821 576.389 158.639 573.571 164.276 573.571ZM334.773 667.419C334.773 614.154 370.847 570.753 434.258 570.753C497.668 570.753 533.742 614.154 533.742 667.419C533.742 720.966 497.668 764.367 434.258 764.367C370.847 764.367 334.773 720.966 334.773 667.419ZM404.666 667.419C404.666 684.892 415.094 698.701 434.258 698.701C453.14 698.701 463.849 684.892 463.849 667.419C463.849 648.818 451.731 636.136 434.258 636.136C416.503 636.136 404.666 648.818 404.666 667.419Z" fill="#808080"/>
    </g>
  </g>
  
  <!-- Tagline -->
  <text x="600" y="420" font-family="system-ui, -apple-system, sans-serif" font-size="32" fill="#666666" text-anchor="middle" font-weight="400">Toronto Transit Alerts</text>
  
  <!-- Features row -->
  <g transform="translate(600, 480)" font-family="system-ui, -apple-system, sans-serif" font-size="22" fill="#888888">
    <text x="-280" y="0" text-anchor="middle">🚇 Subway</text>
    <text x="-100" y="0" text-anchor="middle">🚌 Bus</text>
    <text x="60" y="0" text-anchor="middle">🚃 Streetcar</text>
    <text x="240" y="0" text-anchor="middle">♿ Elevators</text>
  </g>
  
  <!-- Domain -->
  <text x="600" y="560" font-family="system-ui, -apple-system, sans-serif" font-size="28" fill="#9B44C7" text-anchor="middle" font-weight="600">rideto.ca</text>
  
  <!-- Purple accent line at bottom -->
  <rect x="0" y="622" width="1200" height="8" fill="#9B44C7"/>
</svg>
