<svg width="901" height="339" viewBox="0 0 901 339" fill="none" xmlns="http://www.w3.org/2000/svg">
<path d="M96.944 195.044C91.98 195.044 88.768 193.292 91.104 186.284C92.856 180.736 93.148 172.852 85.848 172.852C80.884 172.852 77.38 176.648 77.38 183.948V255.78C77.38 261.62 74.46 264.54 68.328 264.54H18.396C12.556 264.54 9.636 261.62 9.636 255.78V126.132C9.636 120.292 12.556 117.372 18.396 117.372H68.328C74.168 117.372 77.088 120 77.38 125.548C86.14 117.956 97.528 114.452 110.376 114.452C138.116 114.452 153.884 130.804 153.884 159.712C153.884 168.764 152.716 178.4 150.38 187.452C149.212 192.416 146 195.044 140.744 195.044H96.944ZM163.531 82.04C163.531 67.148 171.123 55.76 201.199 55.76C231.275 55.76 238.867 67.148 238.867 82.04C238.867 96.932 231.275 108.32 201.199 108.32C171.123 108.32 163.531 96.932 163.531 82.04ZM167.327 255.78V126.132C167.327 120.292 170.247 117.372 176.087 117.372H226.311C232.151 117.372 235.071 120.292 235.071 126.132V255.78C235.071 261.62 232.151 264.54 226.311 264.54H176.087C170.247 264.54 167.327 261.62 167.327 255.78ZM415.477 78.828V255.78C415.477 261.62 412.557 264.54 406.717 264.54H356.493C350.653 264.54 347.733 261.62 347.733 256.072C337.805 263.372 325.833 267.752 311.817 267.752C271.813 267.752 250.497 241.18 250.497 190.956C250.497 140.732 271.813 114.452 311.817 114.452C326.125 114.452 338.097 118.54 347.733 125.84V78.828C347.733 72.988 350.653 70.068 356.493 70.068H406.717C412.557 70.068 415.477 72.988 415.477 78.828ZM347.733 190.956C347.733 180.736 341.893 173.436 332.549 173.436C323.789 173.436 318.241 180.736 318.241 190.956C318.241 201.176 323.789 208.768 332.549 208.768C341.893 208.768 347.733 201.176 347.733 190.956ZM496.694 200.592C500.49 212.272 511.002 214.608 526.478 214.608C539.618 214.608 552.758 212.564 566.19 211.396C571.154 210.812 572.322 215.192 572.03 219.572L569.986 251.108C569.694 257.824 565.314 258.992 559.766 260.744C546.334 264.832 532.61 267.752 518.302 267.752C469.538 267.752 430.118 243.808 430.118 190.956C430.118 141.9 463.99 114.452 511.586 114.452C542.538 114.452 575.826 127.3 575.826 164.384C575.826 193.876 553.342 200.592 529.106 200.592H496.694ZM495.818 180.152H515.09C519.47 180.152 523.266 176.94 523.266 171.976C523.266 166.72 517.718 164.384 513.046 164.384C502.826 164.384 497.862 171.684 495.818 180.152Z" fill="#9B44C7"/>
<path d="M606.549 118.136H730.213C734.653 118.136 736.873 120.356 736.873 125.018V158.543C736.873 162.983 734.653 165.204 730.213 165.204H694.468V259.339C694.468 263.78 692.248 266 687.807 266H648.954C644.292 266 642.072 263.78 642.072 259.339V165.204H606.549C602.108 165.204 599.888 162.761 599.888 158.321V125.018C599.888 120.356 602.108 118.136 606.549 118.136ZM740.865 192.068C740.865 150.106 769.283 115.916 819.237 115.916C869.191 115.916 897.61 150.106 897.61 192.068C897.61 234.251 869.191 268.442 819.237 268.442C769.283 268.442 740.865 234.251 740.865 192.068ZM795.925 192.068C795.925 205.833 804.14 216.712 819.237 216.712C834.112 216.712 842.549 205.833 842.549 192.068C842.549 177.415 833.002 167.424 819.237 167.424C805.25 167.424 795.925 177.415 795.925 192.068Z" fill="#808080"/>
</svg>
