<svg width="839" height="317" viewBox="0 0 839 317" fill="none" xmlns="http://www.w3.org/2000/svg">
<path d="M11.4062 203.328V88.9805C11.4062 82.3268 13.5449 77.1465 17.8223 73.4395C22.1947 69.7324 27.2324 67.8789 32.9355 67.8789C46.623 67.8789 53.4668 73.7246 53.4668 85.416H54.0371C58.3145 79.2376 62.6868 74.7702 67.1543 72.0137C71.6217 69.2572 77.0872 67.8789 83.5508 67.8789C88.9688 67.8789 93.7214 69.8275 97.8086 73.7246C101.896 77.6217 103.939 83.1823 103.939 90.4062C103.939 94.5885 102.846 97.7728 100.66 99.959C98.569 102.145 95.6699 103.999 91.9629 105.52C88.2559 107.04 83.8835 108.799 78.8457 110.795C70.4811 114.597 64.1602 118.399 59.8828 122.201C55.6055 125.908 53.4668 131.469 53.4668 138.883V203.328C53.4668 207.891 52.5638 211.978 50.7578 215.59C48.9518 219.107 46.4329 221.863 43.2012 223.859C39.9694 225.76 36.3574 226.711 32.3652 226.711C26.0918 226.711 21.0065 224.572 17.1094 220.295C13.3073 215.923 11.4062 210.267 11.4062 203.328ZM108.645 203.328V91.2617C108.645 84.3229 110.546 78.7148 114.348 74.4375C118.245 70.0651 123.33 67.8789 129.604 67.8789C133.691 67.8789 137.303 68.877 140.439 70.873C143.671 72.7741 146.19 75.5306 147.996 79.1426C149.802 82.6595 150.705 86.6992 150.705 91.2617V203.328C150.705 207.891 149.802 211.978 147.996 215.59C146.19 219.107 143.671 221.863 140.439 223.859C137.208 225.76 133.596 226.711 129.604 226.711C123.33 226.711 118.245 224.572 114.348 220.295C110.546 215.923 108.645 210.267 108.645 203.328ZM129.604 4.85938C133.786 4.85938 137.683 5.95247 141.295 8.13867C144.907 10.3249 147.806 13.224 149.992 16.8359C152.178 20.3529 153.271 24.0599 153.271 27.957C153.271 34.5156 150.943 40.2188 146.285 45.0664C141.723 49.819 136.162 52.1953 129.604 52.1953C123.425 52.1953 117.912 49.724 113.064 44.7812C108.312 39.8385 105.936 34.2305 105.936 27.957C105.936 21.9688 108.312 16.6458 113.064 11.9883C117.912 7.23568 123.425 4.85938 129.604 4.85938ZM317.949 23.5371V203.328C317.949 207.891 317.046 211.978 315.24 215.59C313.434 219.107 310.915 221.863 307.684 223.859C304.452 225.76 300.84 226.711 296.848 226.711C285.536 226.711 278.55 220.865 275.889 209.174C271.992 215.352 266.479 220.152 259.35 223.574C252.316 226.901 244.949 228.564 237.25 228.564C223.848 228.564 211.824 224.81 201.178 217.301C190.627 209.792 182.452 199.906 176.654 187.645C170.951 175.383 168.1 162.646 168.1 149.434C168.1 135.176 170.666 121.678 175.799 108.941C180.932 96.2044 188.631 85.8913 198.896 78.002C209.257 70.1126 221.566 66.168 235.824 66.168C240.577 66.168 245.329 66.7383 250.082 67.8789C254.835 68.9245 259.35 70.4928 263.627 72.584C267.904 74.6751 271.992 77.3841 275.889 80.7109V23.5371C275.889 16.5983 277.79 10.9902 281.592 6.71289C285.489 2.34049 290.574 0.154297 296.848 0.154297C300.935 0.154297 304.547 1.15234 307.684 3.14844C310.915 5.04948 313.434 7.80599 315.24 11.418C317.046 14.9349 317.949 18.9746 317.949 23.5371ZM275.889 146.154C275.889 134.843 272.99 125.1 267.191 116.926C261.488 108.751 253.361 104.664 242.811 104.664C235.967 104.664 230.026 106.803 224.988 111.08C220.046 115.262 216.339 120.633 213.867 127.191C211.396 133.75 210.16 140.546 210.16 147.58C210.16 152.428 210.873 157.418 212.299 162.551C213.725 167.684 215.816 172.341 218.572 176.523C221.329 180.611 224.751 183.89 228.838 186.361C233.02 188.738 237.678 189.926 242.811 189.926C249.939 189.926 256.023 187.787 261.061 183.51C266.098 179.232 269.805 173.719 272.182 166.971C274.653 160.127 275.889 153.188 275.889 146.154ZM465.375 161.41H375.836C377.262 171.391 381.634 178.947 388.953 184.08C396.272 189.213 405.112 191.779 415.473 191.779C421.841 191.779 427.259 190.781 431.727 188.785C436.194 186.789 441.755 183.985 448.408 180.373C455.157 176.666 460.052 174.812 463.094 174.812C465.945 174.812 468.702 175.715 471.363 177.521C474.12 179.232 476.306 181.466 477.922 184.223C479.538 186.979 480.346 189.878 480.346 192.92C480.346 197.292 478.302 201.617 474.215 205.895C470.223 210.172 464.852 214.021 458.104 217.443C451.45 220.77 443.893 223.432 435.434 225.428C427.069 227.519 419.132 228.564 411.623 228.564C396.32 228.564 382.632 225.095 370.561 218.156C358.489 211.122 349.174 201.475 342.615 189.213C336.057 176.856 332.777 162.979 332.777 147.58C332.777 137.124 334.631 126.954 338.338 117.068C342.14 107.183 347.368 98.3906 354.021 90.6914C360.77 82.9922 368.802 77.0039 378.117 72.7266C387.527 68.3542 397.555 66.168 408.201 66.168C419.132 66.168 429.303 68.4492 438.713 73.0117C448.218 77.4792 456.25 83.4199 462.809 90.834C469.367 98.248 474.5 106.518 478.207 115.643C481.914 124.673 483.768 133.655 483.768 142.59C483.768 155.137 477.637 161.41 465.375 161.41ZM374.838 133.322H441.707C440.566 123.722 437.049 115.975 431.156 110.082C425.263 104.189 417.611 101.242 408.201 101.242C399.171 101.242 391.662 104.236 385.674 110.225C379.686 116.213 376.074 123.912 374.838 133.322ZM534.953 204.041V57.3281H503.158C496.695 57.3281 491.752 55.3796 488.33 51.4824C484.908 47.4902 483.197 42.7376 483.197 37.2246C483.197 33.8027 484.053 30.5234 485.764 27.3867C487.38 24.25 489.708 21.7786 492.75 19.9727C495.887 18.0716 499.356 17.1211 503.158 17.1211H610.52C614.322 17.1211 617.743 18.0716 620.785 19.9727C623.922 21.7786 626.298 24.25 627.914 27.3867C629.625 30.5234 630.48 33.8027 630.48 37.2246C630.48 42.7376 628.817 47.4902 625.49 51.4824C622.163 55.3796 617.173 57.3281 610.52 57.3281H578.725V204.041C578.725 211.265 576.681 216.873 572.594 220.865C568.602 224.762 563.374 226.711 556.91 226.711C550.352 226.711 545.029 224.762 540.941 220.865C536.949 216.873 534.953 211.265 534.953 204.041ZM732.424 188.215C741.359 188.215 749.296 186.456 756.234 182.939C763.173 179.423 768.971 174.527 773.629 168.254C778.286 161.885 781.708 154.709 783.895 146.725C786.176 138.645 787.316 130.09 787.316 121.061C787.316 108.894 785.225 97.7253 781.043 87.5547C776.861 77.3841 770.587 69.2572 762.223 63.1738C753.953 56.9954 744.02 53.9062 732.424 53.9062C720.827 53.9062 710.847 56.9954 702.482 63.1738C694.213 69.2572 687.987 77.3841 683.805 87.5547C679.622 97.7253 677.531 108.894 677.531 121.061C677.531 140.166 682.236 156.135 691.646 168.967C701.152 181.799 714.744 188.215 732.424 188.215ZM732.424 228.564C713.033 228.564 695.686 223.859 680.383 214.449C665.174 204.944 653.293 191.969 644.738 175.525C636.279 159.081 632.049 140.926 632.049 121.061C632.049 105.947 634.473 91.832 639.32 78.7148C644.168 65.5977 651.059 54.1439 659.994 44.3535C669.024 34.5632 679.67 27.0065 691.932 21.6836C704.193 16.2656 717.691 13.5566 732.424 13.5566C746.872 13.5566 760.274 16.3607 772.631 21.9688C785.083 27.4818 795.776 35.1335 804.711 44.9238C813.646 54.7142 820.585 66.168 825.527 79.2852C830.47 92.4023 832.941 106.327 832.941 121.061C832.941 135.984 830.565 150.004 825.812 163.121C821.06 176.143 814.121 187.597 804.996 197.482C795.966 207.368 785.273 215.02 772.916 220.438C760.559 225.855 747.062 228.564 732.424 228.564Z" fill="#0E0E0E"/>
<path d="M91 255C133.333 288.958 243.4 336.499 345 255" stroke="#DD2B29" stroke-width="33" stroke-linecap="round"/>
</svg>
