<svg width="886" height="213" viewBox="0 0 886 213" fill="none" xmlns="http://www.w3.org/2000/svg">
<path d="M87.308 139.284C82.344 139.284 79.132 137.532 81.468 130.524C83.22 124.976 83.512 117.092 76.212 117.092C71.248 117.092 67.744 120.888 67.744 128.188V200.02C67.744 205.86 64.824 208.78 58.692 208.78H8.76C2.92 208.78 0 205.86 0 200.02V70.372C0 64.532 2.92 61.612 8.76 61.612H58.692C64.532 61.612 67.452 64.24 67.744 69.788C76.504 62.196 87.892 58.692 100.74 58.692C128.48 58.692 144.248 75.044 144.248 103.952C144.248 113.004 143.08 122.64 140.744 131.692C139.576 136.656 136.364 139.284 131.108 139.284H87.308Z" fill="#9B44C7"/>
<path d="M153.895 26.28C153.895 11.388 161.487 0 191.563 0C221.639 0 229.231 11.388 229.231 26.28C229.231 41.172 221.639 52.56 191.563 52.56C161.487 52.56 153.895 41.172 153.895 26.28ZM157.691 200.02V70.372C157.691 64.532 160.611 61.612 166.451 61.612H216.675C222.515 61.612 225.435 64.532 225.435 70.372V200.02C225.435 205.86 222.515 208.78 216.675 208.78H166.451C160.611 208.78 157.691 205.86 157.691 200.02Z" fill="#9B44C7"/>
<path d="M405.841 23.068V200.02C405.841 205.86 402.921 208.78 397.081 208.78H346.857C341.017 208.78 338.097 205.86 338.097 200.312C328.169 207.612 316.197 211.992 302.181 211.992C262.177 211.992 240.861 185.42 240.861 135.196C240.861 84.972 262.177 58.692 302.181 58.692C316.489 58.692 328.461 62.78 338.097 70.08V23.068C338.097 17.228 341.017 14.308 346.857 14.308H397.081C402.921 14.308 405.841 17.228 405.841 23.068ZM338.097 135.196C338.097 124.976 332.257 117.676 322.913 117.676C314.153 117.676 308.605 124.976 308.605 135.196C308.605 145.416 314.153 153.008 322.913 153.008C332.257 153.008 338.097 145.416 338.097 135.196Z" fill="#9B44C7"/>
<path d="M487.058 144.832C490.854 156.512 501.366 158.848 516.842 158.848C529.982 158.848 543.122 156.804 556.554 155.636C561.518 155.052 562.686 159.432 562.394 163.812L560.35 195.348C560.058 202.064 555.678 203.232 550.13 204.984C536.698 209.072 522.974 211.992 508.666 211.992C459.902 211.992 420.482 188.048 420.482 135.196C420.482 86.14 454.354 58.692 501.95 58.692C532.902 58.692 566.19 71.54 566.19 108.624C566.19 138.116 543.706 144.832 519.47 144.832H487.058ZM486.182 124.392H505.454C509.834 124.392 513.63 121.18 513.63 116.216C513.63 110.96 508.082 108.624 503.41 108.624C493.19 108.624 488.226 115.924 486.182 124.392Z" fill="#9B44C7"/>
<path d="M737.927 128.71C734.597 169.286 764.791 204.879 805.367 208.21C845.943 211.54 881.537 181.346 884.867 140.77C888.197 100.194 858.003 64.6003 817.427 61.27C776.851 57.9396 741.257 88.1335 737.927 128.71ZM833.438 136.549C832.439 148.722 821.761 157.78 809.588 156.781C797.415 155.782 788.357 145.104 789.356 132.931C790.355 120.758 801.033 111.7 813.206 112.699C825.379 113.698 834.437 124.376 833.438 136.549Z" fill="#808080"/>
<path d="M597.025 60.24H720.703C725.144 60.24 727.364 62.4622 727.364 67.1289V100.684C727.364 105.129 725.144 107.351 720.703 107.351H684.954V201.573C684.954 206.018 682.734 208.24 678.293 208.24H639.435C634.772 208.24 632.552 206.018 632.552 201.573V107.351H597.025C592.584 107.351 590.364 104.907 590.364 100.462V67.1289C590.364 62.4622 592.584 60.24 597.025 60.24Z" fill="#808080"/>
</svg>
