<svg width="360" height="360" viewBox="0 0 360 360" fill="none" xmlns="http://www.w3.org/2000/svg">
<path d="M16.1348 223.685C7.08518 223.685 -0.311149 216.339 0.326388 207.312C2.661 174.255 12.0428 142.083 27.867 113.172C46.2939 79.5063 72.8207 51.4249 104.833 31.6957C136.845 11.9664 173.239 1.27036 210.426 0.661571C242.372 0.138582 273.957 7.07555 302.888 20.8789C310.855 24.6802 313.637 34.4128 309.518 42.2206L289.759 79.6743C285.432 87.8762 275.192 90.7583 266.643 87.1642C249.205 79.8323 230.483 76.1798 211.569 76.4894C187.025 76.8912 163.006 83.9507 141.878 96.9719C120.749 109.993 103.242 128.527 91.08 150.747C81.5236 168.206 75.5272 187.468 73.3966 207.33C72.4314 216.328 65.186 223.685 56.1364 223.685L16.1348 223.685Z" fill="#9B44C7"/>
<path d="M106.755 226.763C101.277 293.506 150.942 352.052 217.684 357.53C284.427 363.008 342.973 313.343 348.451 246.6C353.929 179.858 304.264 121.312 237.522 115.834C170.779 110.356 112.233 160.021 106.755 226.763ZM263.857 239.657C262.214 259.68 244.65 274.58 224.627 272.936C204.605 271.293 189.705 253.729 191.349 233.706C192.992 213.683 210.556 198.784 230.579 200.427C250.601 202.071 265.501 219.635 263.857 239.657Z" fill="#808080"/>
</svg>
