<svg width="545" height="546" viewBox="0 0 545 546" fill="none" xmlns="http://www.w3.org/2000/svg">
<path d="M277 0C392.118 0 490.835 70.2241 532.649 170.171C546.353 202.928 518.854 235 483.347 235H320C287.967 235 262 260.967 262 293V492.421C262 525.668 233.749 552.667 201.747 543.654C85.3327 510.867 0 403.899 0 277C0 124.017 124.017 0 277 0Z" fill="#9B44C7"/>
<path d="M542.639 355.77C519.297 434.609 461.812 498.782 387.314 531.161C354.513 545.417 322 517.882 322 482.117V353C322 320.967 347.967 295 380 295H491.585C525.078 295 552.148 323.655 542.639 355.77Z" fill="#808080"/>
</svg>
